<svg xmlns="http://www.w3.org/2000/svg" version="1.1" xmlns:xlink="http://www.w3.org/1999/xlink" xmlns:svgjs="http://svgjs.dev/svgjs"  height="146" width="395" viewBox="0 0 395 146">
	<g transform="matrix(1,0,0,1,-0.9090909090909918,0.7525208312305267)">
		<svg viewBox="0 0 395.52 146.39735277164434" height="146.39735277164434" width="395.52">
					<g>
						<svg viewBox="0 0 395.52 146.39735277164434" height="146.39735277164434" width="395.52">
							<g>
								<svg viewBox="0 0 663.128208343072 245.44957081722583" height="146.39735277164434" width="395.52">
									<g transform="matrix(1,0,0,1,265.630608343072,49.12551206673672)">
										<svg viewBox="0 0 397.4975999999999 147.1985466837524" height="147.1985466837524" width="397.4975999999999">
											<g id="textblocktransform">
												<svg viewBox="0 0 397.4975999999999 147.1985466837524" height="147.1985466837524" width="397.4975999999999" id="textblock">
													<g>
														<rect width="397.4975999999999" height="7.631248969453542" x="0" y="93.61113320065203" fill="#f9cc0b" opacity="1" stroke-width="0" stroke="transparent" fill-opacity="1" class="rect-qz-0" data-fill-palette-color="primary" rx="1%" id="qz-0" data-palette-color="#f9cc0b"/>
													</g>
													<g transform="matrix(1,0,0,1,0.9887999999999693,0)">
														<svg viewBox="0 0 395.52 84.62144200626959" height="84.62144200626959" width="395.52">
															<g transform="matrix(1,0,0,1,0,0)">
																<svg width="395.52" viewBox="2.95 -40.5 191.38000000000002 40.95" height="84.62144200626959" data-palette-color="#f9cc0b">
																	<path d="M8.5 0L2.95 0 3.65-40.5 11.3-40.5 17.05-12.45 23.05-40.5 30.45-40.5 31.2 0 25.7 0 25.1-28.15 19.35 0 14.9 0 9.05-28.25 8.5 0ZM45.5 0.45L45.5 0.45Q42.25 0.45 40.2-0.78 38.15-2 37.17-4.38 36.2-6.75 36.2-10.1L36.2-10.1 36.2-18.8Q36.2-22.25 37.17-24.6 38.15-26.95 40.22-28.15 42.3-29.35 45.5-29.35L45.5-29.35Q48.95-29.35 50.87-28.05 52.8-26.75 53.62-24.28 54.45-21.8 54.45-18.25L54.45-18.25 54.45-14.15 42.95-14.15 42.95-8.45Q42.95-7.05 43.22-6.15 43.5-5.25 44.1-4.85 44.7-4.45 45.55-4.45L45.55-4.45Q46.45-4.45 47-4.88 47.55-5.3 47.8-6.13 48.05-6.95 48.05-8.2L48.05-8.2 48.05-10.6 54.4-10.6 54.4-8.65Q54.4-4.25 52.2-1.9 50 0.45 45.5 0.45ZM42.95-19.5L42.95-17.5 48.05-17.5 48.05-20.25Q48.05-21.75 47.8-22.68 47.55-23.6 47-24.03 46.45-24.45 45.45-24.45L45.45-24.45Q44.55-24.45 44-24 43.45-23.55 43.2-22.5 42.95-21.45 42.95-19.5L42.95-19.5ZM66.25 0L59.5 0 59.5-40.5 66.25-40.5 66.25 0ZM78.84 0L72.09 0 72.09-40.5 78.84-40.5 78.84 0ZM92.99 0.45L92.99 0.45Q89.84 0.45 87.79-0.73 85.74-1.9 84.72-4.15 83.69-6.4 83.69-9.6L83.69-9.6 83.69-19.3Q83.69-22.5 84.72-24.75 85.74-27 87.79-28.18 89.84-29.35 92.99-29.35L92.99-29.35Q96.14-29.35 98.22-28.18 100.29-27 101.32-24.75 102.34-22.5 102.34-19.3L102.34-19.3 102.34-9.6Q102.34-6.4 101.32-4.15 100.29-1.9 98.22-0.73 96.14 0.45 92.99 0.45ZM93.04-4.25L93.04-4.25Q94.19-4.25 94.74-4.9 95.29-5.55 95.44-6.68 95.59-7.8 95.59-9.15L95.59-9.15 95.59-19.75Q95.59-21.1 95.44-22.2 95.29-23.3 94.74-23.98 94.19-24.65 93.04-24.65L93.04-24.65Q91.89-24.65 91.34-23.98 90.79-23.3 90.62-22.2 90.44-21.1 90.44-19.75L90.44-19.75 90.44-9.15Q90.44-7.8 90.62-6.68 90.79-5.55 91.34-4.9 91.89-4.25 93.04-4.25ZM115.69 0L109.79 0 105.34-28.9 110.99-28.9 113.54-10.15 116.54-28.9 121.59-28.9 124.44-9.95 127.19-28.9 132.54-28.9 127.99 0 122.24 0 119.04-18.25 115.69 0ZM141.99 0.45L141.99 0.45Q140.04 0.45 138.64-0.58 137.24-1.6 136.49-3.18 135.74-4.75 135.74-6.45L135.74-6.45Q135.74-9.15 136.74-11 137.74-12.85 139.39-14.1 141.04-15.35 143.14-16.28 145.24-17.2 147.39-17.95L147.39-17.95 147.39-20.45Q147.39-21.7 147.21-22.55 147.04-23.4 146.56-23.85 146.09-24.3 145.09-24.3L145.09-24.3Q144.24-24.3 143.71-23.9 143.19-23.5 142.96-22.78 142.74-22.05 142.69-21.1L142.69-21.1 142.59-19.35 136.14-19.6Q136.29-24.6 138.61-26.98 140.94-29.35 145.69-29.35L145.69-29.35Q150.04-29.35 152.01-26.95 153.99-24.55 153.99-20.45L153.99-20.45 153.99-7.1Q153.99-5.5 154.06-4.2 154.14-2.9 154.26-1.85 154.39-0.8 154.49 0L154.49 0 148.39 0Q148.24-1 148.01-2.27 147.79-3.55 147.69-4.15L147.69-4.15Q147.19-2.4 145.79-0.98 144.39 0.45 141.99 0.45ZM144.49-4.6L144.49-4.6Q145.14-4.6 145.71-4.93 146.29-5.25 146.74-5.7 147.19-6.15 147.39-6.5L147.39-6.5 147.39-14.55Q146.29-13.9 145.31-13.25 144.34-12.6 143.61-11.83 142.89-11.05 142.51-10.15 142.14-9.25 142.14-8.05L142.14-8.05Q142.14-6.45 142.76-5.53 143.39-4.6 144.49-4.6ZM165.93 0L159.13 0 159.13-28.9 165.93-28.9 165.93-24.45Q167.43-27 168.93-28.13 170.43-29.25 172.23-29.25L172.23-29.25Q172.53-29.25 172.76-29.23 172.98-29.2 173.28-29.15L173.28-29.15 173.28-22.1Q172.68-22.35 171.96-22.53 171.23-22.7 170.48-22.7L170.48-22.7Q169.13-22.7 168.03-22.05 166.93-21.4 165.93-19.9L165.93-19.9 165.93 0ZM185.38 0.45L185.38 0.45Q182.13 0.45 180.08-0.78 178.03-2 177.06-4.38 176.08-6.75 176.08-10.1L176.08-10.1 176.08-18.8Q176.08-22.25 177.06-24.6 178.03-26.95 180.11-28.15 182.18-29.35 185.38-29.35L185.38-29.35Q188.83-29.35 190.76-28.05 192.68-26.75 193.51-24.28 194.33-21.8 194.33-18.25L194.33-18.25 194.33-14.15 182.83-14.15 182.83-8.45Q182.83-7.05 183.11-6.15 183.38-5.25 183.98-4.85 184.58-4.45 185.43-4.45L185.43-4.45Q186.33-4.45 186.88-4.88 187.43-5.3 187.68-6.13 187.93-6.95 187.93-8.2L187.93-8.2 187.93-10.6 194.28-10.6 194.28-8.65Q194.28-4.25 192.08-1.9 189.88 0.45 185.38 0.45ZM182.83-19.5L182.83-17.5 187.93-17.5 187.93-20.25Q187.93-21.75 187.68-22.68 187.43-23.6 186.88-24.03 186.33-24.45 185.33-24.45L185.33-24.45Q184.43-24.45 183.88-24 183.33-23.55 183.08-22.5 182.83-21.45 182.83-19.5L182.83-19.5Z" opacity="1" transform="matrix(1,0,0,1,0,0)" fill="#f9cc0b" class="wordmark-text-0" data-fill-palette-color="primary" id="text-0"/>
																</svg>
															</g>
														</svg>
													</g>
													<g transform="matrix(1,0,0,1,0,110.23207336448802)">
														<svg viewBox="0 0 375.74399999999997 36.96647331926439" height="36.96647331926439" width="375.74399999999997">
															<g transform="matrix(1,0,0,1,0,0)">
																<svg width="375.74399999999997" viewBox="2 -38.15 497.5 48.95" height="36.96647331926439" data-palette-color="#f9cc0b">
																	<path d="M18.35 0.55L18.35 0.55Q14.3 0.55 11.23-0.95 8.15-2.45 6.1-5.05 4.05-7.65 3.03-11.03 2-14.4 2-18.2L2-18.2Q2-22 3.03-25.38 4.05-28.75 6.08-31.38 8.1-34 11.2-35.48 14.3-36.95 18.4-36.95L18.4-36.95Q22.55-36.95 25.63-35.48 28.7-34 30.75-31.4 32.8-28.8 33.83-25.4 34.85-22 34.85-18.15L34.85-18.15Q34.85-14.35 33.8-10.98 32.75-7.6 30.7-5 28.65-2.4 25.58-0.93 22.5 0.55 18.35 0.55ZM18.45-3.15L18.45-3.15Q21.6-3.15 23.7-4.48 25.8-5.8 27.08-8 28.35-10.2 28.9-12.85 29.45-15.5 29.45-18.15L29.45-18.15Q29.45-20.8 28.9-23.45 28.35-26.1 27.08-28.3 25.8-30.5 23.68-31.85 21.55-33.2 18.45-33.2L18.45-33.2Q15.35-33.2 13.23-31.88 11.1-30.55 9.85-28.35 8.6-26.15 8.03-23.5 7.45-20.85 7.45-18.2L7.45-18.2Q7.45-15.55 8.03-12.9 8.6-10.25 9.85-8.03 11.1-5.8 13.23-4.48 15.35-3.15 18.45-3.15ZM39.2-24.65L44-25.25Q44.4-24.45 44.6-23.6 44.8-22.75 44.9-21.95L44.9-21.95Q46.2-23.55 48.12-24.5 50.05-25.45 52.15-25.45L52.15-25.45Q54.8-25.45 56.75-24.35 58.7-23.25 60-21.38 61.3-19.5 61.92-17.23 62.55-14.95 62.55-12.6L62.55-12.6Q62.55-9.15 61.32-6.13 60.1-3.1 57.6-1.25 55.1 0.6 51.3 0.6L51.3 0.6Q49.7 0.6 48.02 0.1 46.35-0.4 45.15-1.5L45.15-1.5Q45.25-0.8 45.25-0.08 45.25 0.65 45.25 1.1L45.25 1.1 45.25 7.9 45.95 10.8 40.75 10.8 40.75-17.65Q40.75-18.7 40.6-19.98 40.45-21.25 40.12-22.5 39.8-23.75 39.2-24.65L39.2-24.65ZM50.8-21.6L50.8-21.6Q49.2-21.6 47.72-20.65 46.25-19.7 45.25-18.45L45.25-18.45 45.25-10.1Q45.25-8.25 45.85-6.6 46.45-4.95 47.72-3.95 49-2.95 51.1-2.95L51.1-2.95Q53-2.95 54.27-3.8 55.55-4.65 56.32-6.05 57.1-7.45 57.4-9.08 57.7-10.7 57.7-12.3L57.7-12.3Q57.7-13.95 57.35-15.6 57-17.25 56.17-18.6 55.35-19.95 54.05-20.78 52.75-21.6 50.8-21.6ZM78.1-25.45L78.1-25.45Q81.2-25.45 83.27-24.18 85.35-22.9 86.4-20.68 87.45-18.45 87.45-15.6L87.45-15.6Q87.45-14.9 87.37-14.15 87.3-13.4 87.15-12.55L87.15-12.55 71.45-12.55Q71.45-8 73.52-5.5 75.6-3 79-3L79-3Q80.45-3 82.05-3.45 83.65-3.9 85.35-4.85L85.35-4.85 86.9-2.15Q85.2-0.75 82.9-0.05 80.6 0.65 78.4 0.65L78.4 0.65Q74.5 0.65 71.87-1.15 69.25-2.95 67.95-5.9 66.65-8.85 66.65-12.15L66.65-12.15Q66.65-14.7 67.37-17.05 68.1-19.4 69.55-21.33 71-23.25 73.12-24.35 75.25-25.45 78.1-25.45ZM77.75-22.1L77.75-22.1Q76.05-22.1 74.77-21.18 73.5-20.25 72.75-18.8 72-17.35 71.75-15.85L71.75-15.85 82.7-15.85Q82.8-17.8 82.2-19.2 81.6-20.6 80.47-21.35 79.35-22.1 77.75-22.1ZM91.64-24.65L96.59-25.3Q96.94-24.45 97.17-23.58 97.39-22.7 97.49-21.8L97.49-21.8Q98.99-23.25 101.04-24.35 103.09-25.45 105.19-25.45L105.19-25.45Q107.99-25.45 109.64-24.33 111.29-23.2 112.04-21.23 112.79-19.25 112.79-16.65L112.79-16.65 112.79 0 108.24 0 108.24-15.45Q108.24-16.9 108.04-18.32 107.84-19.75 107.02-20.65 106.19-21.55 104.29-21.55L104.29-21.55Q103.19-21.55 101.97-21.08 100.74-20.6 99.67-19.88 98.59-19.15 97.79-18.35L97.79-18.35 97.79 0 93.29 0 93.29-17.65Q93.29-18.6 93.14-19.93 92.99-21.25 92.64-22.55 92.29-23.85 91.64-24.65L91.64-24.65ZM142.19-36.95L142.19-36.95Q144.74-36.95 147.16-36.25 149.59-35.55 151.74-34.2L151.74-34.2 149.24-30.65Q147.69-31.8 145.86-32.48 144.04-33.15 142.14-33.15L142.14-33.15Q139.64-33.15 137.84-31.9 136.04-30.65 136.04-27.9L136.04-27.9Q136.04-26.3 136.86-25.2 137.69-24.1 139.09-23.28 140.49-22.45 142.19-21.65L142.19-21.65Q143.94-20.85 145.76-19.9 147.59-18.95 149.14-17.68 150.69-16.4 151.61-14.58 152.54-12.75 152.54-10.1L152.54-10.1Q152.54-6.45 150.79-4.08 149.04-1.7 146.16-0.55 143.29 0.6 139.99 0.6L139.99 0.6Q137.19 0.6 134.56-0.13 131.94-0.85 129.49-2.15L129.49-2.15 131.39-6.55Q133.09-5.1 135.41-4.17 137.74-3.25 139.94-3.25L139.94-3.25Q141.59-3.25 143.24-3.88 144.89-4.5 145.99-5.85 147.09-7.2 147.09-9.3L147.09-9.3Q147.09-11.4 146.04-12.78 144.99-14.15 143.31-15.13 141.64-16.1 139.74-16.95L139.74-16.95Q138.09-17.75 136.46-18.6 134.84-19.45 133.49-20.6 132.14-21.75 131.34-23.38 130.54-25 130.54-27.25L130.54-27.25Q130.54-30.5 132.24-32.65 133.94-34.8 136.61-35.88 139.29-36.95 142.19-36.95ZM167.24 0.65L167.24 0.65Q163.59 0.65 161.06-1.15 158.54-2.95 157.26-5.9 155.99-8.85 155.99-12.25L155.99-12.25Q155.99-15.65 157.36-18.68 158.74-21.7 161.34-23.58 163.94-25.45 167.54-25.45L167.54-25.45Q171.24-25.45 173.76-23.68 176.29-21.9 177.56-18.95 178.84-16 178.84-12.55L178.84-12.55Q178.84-9.1 177.49-6.1 176.14-3.1 173.54-1.23 170.94 0.65 167.24 0.65ZM167.29-2.7L167.29-2.7Q169.19-2.7 170.46-3.6 171.74-4.5 172.51-5.98 173.29-7.45 173.61-9.15 173.94-10.85 173.94-12.4L173.94-12.4Q173.94-14 173.66-15.7 173.39-17.4 172.66-18.85 171.94-20.3 170.66-21.2 169.39-22.1 167.49-22.1L167.49-22.1Q165.59-22.1 164.31-21.18 163.04-20.25 162.29-18.78 161.54-17.3 161.19-15.63 160.84-13.95 160.84-12.4L160.84-12.4Q160.84-10.9 161.16-9.2 161.49-7.5 162.21-6.03 162.94-4.55 164.19-3.63 165.44-2.7 167.29-2.7ZM184.03-24.85L189.23-24.85 189.23-9.45Q189.23-8.05 189.48-6.63 189.73-5.2 190.56-4.23 191.38-3.25 193.18-3.25L193.18-3.25Q194.98-3.25 196.43-4.03 197.88-4.8 198.78-6.15 199.68-7.5 199.68-9.3L199.68-9.3 199.68-21.95Q199.68-22 199.53-22.68 199.38-23.35 199.23-24.05 199.08-24.75 199.03-24.85L199.03-24.85 204.23-24.85 204.23-5.2Q204.23-4.15 204.58-3.68 204.93-3.2 205.68-3.2L205.68-3.2Q206.38-3.2 207.58-3.65L207.58-3.65 208.48-0.8Q207.48-0.25 206.21 0.1 204.93 0.45 203.78 0.45L203.78 0.45Q202.43 0.45 201.38-0.3 200.33-1.05 200.03-2.95L200.03-2.95Q198.53-1.4 196.48-0.38 194.43 0.65 192.23 0.65L192.23 0.65Q189.48 0.65 187.81-0.48 186.13-1.6 185.41-3.58 184.68-5.55 184.68-8.15L184.68-8.15 184.68-21.95 184.03-24.85ZM210.78-24.75L215.68-25.3Q216.63-23.05 216.83-20.55L216.83-20.55Q218.13-22.6 220.33-23.95 222.53-25.3 225.03-25.3L225.03-25.3 224.03-20.6Q221.68-20.6 219.98-19.38 218.28-18.15 216.93-16.15L216.93-16.15 216.93 0 212.38 0 212.38-18.05Q212.38-19 212.23-20.28 212.08-21.55 211.73-22.75 211.38-23.95 210.78-24.75L210.78-24.75ZM239.58-25.45L239.58-25.45Q241.48-25.45 243.43-24.83 245.38-24.2 247.18-22.95L247.18-22.95 244.78-19.85Q243.38-20.95 242.08-21.48 240.78-22 239.48-22L239.48-22Q237.93-22 236.7-21.28 235.48-20.55 234.55-19.25 233.63-17.95 233.15-16.23 232.68-14.5 232.68-12.45L232.68-12.45Q232.68-7.85 234.73-5.4 236.78-2.95 239.98-2.95L239.98-2.95Q241.43-2.95 242.8-3.38 244.18-3.8 245.68-4.7L245.68-4.7 247.08-1.85Q245.03-0.6 243.2 0.03 241.38 0.65 239.03 0.65L239.03 0.65Q235.68 0.65 233.15-1 230.63-2.65 229.2-5.63 227.78-8.6 227.78-12.6L227.78-12.6Q227.78-16.5 229.35-19.4 230.93-22.3 233.63-23.88 236.33-25.45 239.58-25.45ZM261.73-25.45L261.73-25.45Q264.83-25.45 266.9-24.18 268.98-22.9 270.03-20.68 271.08-18.45 271.08-15.6L271.08-15.6Q271.08-14.9 271-14.15 270.93-13.4 270.78-12.55L270.78-12.55 255.08-12.55Q255.08-8 257.15-5.5 259.23-3 262.63-3L262.63-3Q264.08-3 265.68-3.45 267.28-3.9 268.98-4.85L268.98-4.85 270.53-2.15Q268.83-0.75 266.53-0.05 264.23 0.65 262.03 0.65L262.03 0.65Q258.13 0.65 255.5-1.15 252.88-2.95 251.58-5.9 250.28-8.85 250.28-12.15L250.28-12.15Q250.28-14.7 251-17.05 251.73-19.4 253.18-21.33 254.63-23.25 256.75-24.35 258.88-25.45 261.73-25.45ZM261.38-22.1L261.38-22.1Q259.68-22.1 258.4-21.18 257.13-20.25 256.38-18.8 255.63-17.35 255.38-15.85L255.38-15.85 266.33-15.85Q266.43-17.8 265.83-19.2 265.23-20.6 264.1-21.35 262.98-22.1 261.38-22.1ZM303.27 0.6L303.27 0.6Q298.97 0.6 295.82-0.88 292.67-2.35 290.6-4.95 288.52-7.55 287.52-10.85 286.52-14.15 286.52-17.7L286.52-17.7Q286.52-21.5 287.62-24.98 288.72-28.45 290.9-31.15 293.07-33.85 296.27-35.43 299.47-37 303.67-37L303.67-37Q305.42-37 307.52-36.58 309.62-36.15 311.57-35.33 313.52-34.5 314.77-33.1L314.77-33.1 311.92-29.85Q310.52-31.45 308.12-32.33 305.72-33.2 303.62-33.2L303.62-33.2Q300.72-33.2 298.57-31.9 296.42-30.6 294.97-28.4 293.52-26.2 292.8-23.5 292.07-20.8 292.07-17.95L292.07-17.95Q292.07-13.45 293.5-10.18 294.92-6.9 297.52-5.15 300.12-3.4 303.67-3.4L303.67-3.4Q305.77-3.4 308.2-4 310.62-4.6 313.22-5.9L313.22-5.9 314.87-2.85Q313.32-1.75 311.32-1 309.32-0.25 307.25 0.18 305.17 0.6 303.27 0.6ZM319.02-38.15L324.12-38.15 324.12-22.05Q325.72-23.45 327.57-24.48 329.42-25.5 331.62-25.5L331.62-25.5Q334.37-25.5 336.02-24.38 337.67-23.25 338.39-21.28 339.12-19.3 339.12-16.7L339.12-16.7 339.12 0 334.62 0 334.62-15.5Q334.62-16.95 334.39-18.35 334.17-19.75 333.37-20.68 332.57-21.6 330.67-21.6L330.67-21.6Q329.52-21.6 328.34-21.1 327.17-20.6 326.09-19.88 325.02-19.15 324.12-18.4L324.12-18.4 324.12 0 319.62 0 319.62-35.3 319.02-38.15ZM355.67-25.45L355.67-25.45Q359.62-25.45 361.67-23.33 363.72-21.2 363.72-17.25L363.72-17.25 363.72-5.15Q363.72-4 364.12-3.6 364.52-3.2 365.12-3.2L365.12-3.2Q365.57-3.2 366.07-3.33 366.57-3.45 367.02-3.65L367.02-3.65 367.92-0.8Q367.07-0.3 365.82 0.08 364.57 0.45 363.27 0.45L363.27 0.45Q361.87 0.45 360.82-0.28 359.77-1 359.47-2.95L359.47-2.95Q358.02-1.3 356.09-0.38 354.17 0.55 351.97 0.55L351.97 0.55Q349.02 0.55 347.04-1.18 345.07-2.9 345.07-5.95L345.07-5.95Q345.07-8.8 346.42-10.5 347.77-12.2 349.94-13.08 352.12-13.95 354.57-14.25 357.02-14.55 359.17-14.55L359.17-14.55 359.17-17.35Q359.17-19.4 358.32-20.7 357.47-22 355.12-22L355.12-22Q353.27-22 351.54-21.23 349.82-20.45 348.17-19.05L348.17-19.05 346.02-22.25Q348.12-23.85 350.59-24.65 353.07-25.45 355.67-25.45ZM359.17-9.6L359.17-11.1Q357.87-11.1 356.27-11 354.67-10.9 353.17-10.43 351.67-9.95 350.69-8.95 349.72-7.95 349.72-6.2L349.72-6.2Q349.72-4.65 350.82-3.93 351.92-3.2 353.47-3.2L353.47-3.2Q355.17-3.2 356.44-4.15 357.72-5.1 358.44-6.58 359.17-8.05 359.17-9.6L359.17-9.6ZM370.06-24.7L375.01-25.25Q375.36-24.45 375.59-23.58 375.81-22.7 375.91-21.85L375.91-21.85Q377.36-23.2 379.26-24.33 381.16-25.45 383.26-25.45L383.26-25.45Q385.56-25.45 387.26-24.5 388.96-23.55 389.96-21.4L389.96-21.4Q391.51-22.95 393.54-24.2 395.56-25.45 397.81-25.45L397.81-25.45Q400.56-25.45 402.19-24.3 403.81-23.15 404.54-21.2 405.26-19.25 405.26-16.65L405.26-16.65 405.26 0 400.71 0 400.71-15.55Q400.71-17 400.49-18.38 400.26-19.75 399.41-20.65 398.56-21.55 396.76-21.55L396.76-21.55Q395.11-21.55 393.46-20.48 391.81-19.4 390.71-18.3L390.71-18.3 390.71 0 386.16 0 386.16-15.55Q386.16-17 385.94-18.38 385.71-19.75 384.89-20.65 384.06-21.55 382.21-21.55L382.21-21.55Q381.21-21.55 380.09-21.05 378.96-20.55 377.96-19.8 376.96-19.05 376.21-18.35L376.21-18.35 376.21 0 371.66 0 371.66-18Q371.66-19 371.49-20.23 371.31-21.45 370.96-22.65 370.61-23.85 370.06-24.7L370.06-24.7ZM411.51-24.65L416.31-25.25Q416.71-24.45 416.91-23.6 417.11-22.75 417.21-21.95L417.21-21.95Q418.51-23.55 420.44-24.5 422.36-25.45 424.46-25.45L424.46-25.45Q427.11-25.45 429.06-24.35 431.01-23.25 432.31-21.38 433.61-19.5 434.24-17.23 434.86-14.95 434.86-12.6L434.86-12.6Q434.86-9.15 433.64-6.13 432.41-3.1 429.91-1.25 427.41 0.6 423.61 0.6L423.61 0.6Q422.01 0.6 420.34 0.1 418.66-0.4 417.46-1.5L417.46-1.5Q417.56-0.8 417.56-0.08 417.56 0.65 417.56 1.1L417.56 1.1 417.56 7.9 418.26 10.8 413.06 10.8 413.06-17.65Q413.06-18.7 412.91-19.98 412.76-21.25 412.44-22.5 412.11-23.75 411.51-24.65L411.51-24.65ZM423.11-21.6L423.11-21.6Q421.51-21.6 420.04-20.65 418.56-19.7 417.56-18.45L417.56-18.45 417.56-10.1Q417.56-8.25 418.16-6.6 418.76-4.95 420.04-3.95 421.31-2.95 423.41-2.95L423.41-2.95Q425.31-2.95 426.59-3.8 427.86-4.65 428.64-6.05 429.41-7.45 429.71-9.08 430.01-10.7 430.01-12.3L430.01-12.3Q430.01-13.95 429.66-15.6 429.31-17.25 428.49-18.6 427.66-19.95 426.36-20.78 425.06-21.6 423.11-21.6ZM446.41-33.35L446.41-33.35Q446.41-32.05 445.48-31.1 444.56-30.15 443.16-30.15L443.16-30.15Q441.86-30.15 440.93-31.1 440.01-32.05 440.01-33.35L440.01-33.35Q440.01-34.65 440.93-35.6 441.86-36.55 443.21-36.55L443.21-36.55Q444.51-36.55 445.46-35.6 446.41-34.65 446.41-33.35ZM440.36-24.85L445.51-24.85 445.51 0 440.96 0 440.96-21.95 440.36-24.85ZM462.76 0.65L462.76 0.65Q459.11 0.65 456.58-1.15 454.06-2.95 452.78-5.9 451.51-8.85 451.51-12.25L451.51-12.25Q451.51-15.65 452.88-18.68 454.26-21.7 456.86-23.58 459.46-25.45 463.06-25.45L463.06-25.45Q466.76-25.45 469.28-23.68 471.81-21.9 473.08-18.95 474.36-16 474.36-12.55L474.36-12.55Q474.36-9.1 473.01-6.1 471.66-3.1 469.06-1.23 466.46 0.65 462.76 0.65ZM462.81-2.7L462.81-2.7Q464.71-2.7 465.98-3.6 467.26-4.5 468.03-5.98 468.81-7.45 469.13-9.15 469.46-10.85 469.46-12.4L469.46-12.4Q469.46-14 469.18-15.7 468.91-17.4 468.18-18.85 467.46-20.3 466.18-21.2 464.91-22.1 463.01-22.1L463.01-22.1Q461.11-22.1 459.83-21.18 458.56-20.25 457.81-18.78 457.06-17.3 456.71-15.63 456.36-13.95 456.36-12.4L456.36-12.4Q456.36-10.9 456.68-9.2 457.01-7.5 457.73-6.03 458.46-4.55 459.71-3.63 460.96-2.7 462.81-2.7ZM478.35-24.65L483.3-25.3Q483.65-24.45 483.88-23.58 484.1-22.7 484.2-21.8L484.2-21.8Q485.7-23.25 487.75-24.35 489.8-25.45 491.9-25.45L491.9-25.45Q494.7-25.45 496.35-24.33 498-23.2 498.75-21.23 499.5-19.25 499.5-16.65L499.5-16.65 499.5 0 494.95 0 494.95-15.45Q494.95-16.9 494.75-18.32 494.55-19.75 493.73-20.65 492.9-21.55 491-21.55L491-21.55Q489.9-21.55 488.68-21.08 487.45-20.6 486.38-19.88 485.3-19.15 484.5-18.35L484.5-18.35 484.5 0 480 0 480-17.65Q480-18.6 479.85-19.93 479.7-21.25 479.35-22.55 479-23.85 478.35-24.65L478.35-24.65Z" opacity="1" transform="matrix(1,0,0,1,0,0)" fill="#f9cc0b" class="slogan-text-1" data-fill-palette-color="secondary" id="text-1"/>
																</svg>
															</g>
														</svg>
													</g>
												</svg>
											</g>
										</svg>
									</g>
									<g>
										<svg viewBox="0 0 245.65351679999995 245.44957081722583" height="245.44957081722583" width="245.65351679999995">
											<g>
												<svg xmlns="http://www.w3.org/2000/svg" xmlns:xlink="http://www.w3.org/1999/xlink" version="1.1" x="0" y="0" viewBox="0 0.04200000000000026 99.999 99.91597902559224" enable-background="new 0 0 100 100" xml:space="preserve" height="245.44957081722583" width="245.65351679999995" class="icon-icon-0" data-fill-palette-color="accent" id="icon-0">
													<path fill-rule="evenodd" clip-rule="evenodd" d="M95.525 52.728c-5.582-1.496-6.847-14.585-2.268-17.228 1.501-0.87 2.665-2.104 3.434-3.527-1.191-4.343-5.255-10.6-7.548-13.383-1.676-0.078-3.39 0.305-4.95 1.206-4.995 2.886-15.321-4.833-13.783-10.578 0.481-1.795 0.227-3.972-0.165-5.244-2.839-1.468-9.562-3.443-14.555-3.932-1.076 0.783-2.308 2.676-2.788 4.483-1.629 6.075-14.52 6.958-17.285 2.17-0.923-1.6-2.623-3.09-3.798-3.58-3.23 0.979-10.249 5.048-13.088 7.397 0.196 1.664 0.234 3.597 1.188 5.247 2.763 4.789-4.72 15.438-10.629 13.855-1.944-0.52-3.984-0.372-5.648 0.313C2.271 32.963 0.196 40.97 0 44.2c0.392 0.881 2.729 2.428 4.598 2.928 8.043 2.156 8.106 13.951 2.279 17.315-1.646 0.951-3.056 2.271-3.643 3.936 0.979 3.132 4.913 10.018 7.458 12.955 1.664 0.195 3.597-0.232 5.248-1.187 5.204-3.007 15.612 4.064 13.853 10.631-0.457 1.709-0.204 3.507 0.089 5.27 3.916 1.664 11 4.005 14.916 3.907 1.272-1.175 2.057-2.812 2.504-4.483 1.54-5.748 14.253-7.582 17.257-2.378 0.839 1.455 2.014 2.836 3.384 3.619 4.111-1.175 11.338-5.219 13.788-7.764 0.096-1.859-0.604-3.412-1.474-4.922-3.247-5.619 4.338-15.458 10.575-13.786 1.708 0.456 3.568 0.302 5.135-0.089 1.37-3.427 3.642-9.549 4.032-14.639C98.629 53.947 97.329 53.212 95.525 52.728zM76.521 56.525c-3.807 14.217-18.417 22.651-32.632 18.843-14.213-3.81-22.647-18.423-18.839-32.639 3.808-14.216 18.418-22.651 32.631-18.842C71.895 27.696 80.33 42.307 76.521 56.525z" fill="#D8D8D8" data-fill-palette-color="accent"/>
												</svg>
											</g>
										</svg>
									</g>
								</svg>
							</g>
						</svg>
					</g>
					<defs/>
				</svg>
	</g>
</svg>